<svg width="301" height="277" viewBox="0 0 301 277" fill="none" xmlns="http://www.w3.org/2000/svg">
<g filter="url(#filter0_f_201_79)">
<path d="M238 138.4C238 155.47 229.783 171.884 215.054 184.235C200.325 196.586 180.216 203.924 158.903 204.727C137.589 205.529 116.707 199.734 100.594 188.545C84.4797 177.356 74.3713 161.632 72.367 144.637C70.3627 127.643 76.6164 110.684 89.8299 97.2808C103.043 83.8778 122.201 75.0607 143.327 72.66C164.452 70.2592 185.922 74.4593 203.278 84.3882C220.634 94.3171 232.544 109.212 236.535 125.981L155 138.4H238Z" fill="url(#paint0_linear_201_79)" fill-opacity="0.3"/>
</g>
<defs>
<filter id="filter0_f_201_79" x="0.0664673" y="0.0664673" width="309.867" height="276.667" filterUnits="userSpaceOnUse" color-interpolation-filters="sRGB">
<feFlood flood-opacity="0" result="BackgroundImageFix"/>
<feBlend mode="normal" in="SourceGraphic" in2="BackgroundImageFix" result="shape"/>
<feGaussianBlur stdDeviation="35.9667" result="effect1_foregroundBlur_201_79"/>
</filter>
<linearGradient id="paint0_linear_201_79" x1="238" y1="158.86" x2="111.947" y2="166.563" gradientUnits="userSpaceOnUse">
<stop stop-color="#237249" stop-opacity="0.55"/>
<stop offset="0.518493" stop-color="#35C66B" stop-opacity="0.73"/>
</linearGradient>
</defs>
</svg>
