<svg width="426" height="305" viewBox="0 0 426 305" fill="none" xmlns="http://www.w3.org/2000/svg">
<path d="M0.716705 280.803L73.388 242.159C92.8773 231.795 102.463 209.212 96.3794 187.993L94.4777 181.361C87.9494 158.591 99.4815 134.536 121.322 125.367L133.247 120.36C143.351 116.119 151.643 108.463 156.677 98.7292L166.09 80.5271C175.325 62.6703 194.942 52.7161 214.806 55.8065L300.608 69.1552C319.461 72.0882 338.204 63.2713 347.966 46.8781L359.326 27.8006C369.203 11.2147 388.257 2.40398 407.291 5.62189L451.495 13.0953" stroke="#D9D9D9" stroke-width="0.629372" stroke-linejoin="round"/>
<path d="M13.2599 292.491L85.9313 253.847C105.421 243.483 115.006 220.9 108.923 199.682L107.021 193.049C100.493 170.279 112.025 146.225 133.865 137.055L145.79 132.049C155.894 127.807 164.186 120.151 169.22 110.417L178.634 92.2153C187.869 74.3585 207.485 64.4043 227.349 67.4947L313.151 80.8434C332.004 83.7764 350.748 74.9595 360.509 58.5663L371.869 39.4888C381.746 22.9029 400.8 14.0922 419.834 17.3101L464.038 24.7835" stroke="#D9D9D9" stroke-width="0.629372" stroke-linejoin="round"/>
<path d="M25.8034 304.18L98.4747 265.535C117.964 255.172 127.55 232.589 121.466 211.37L119.564 204.737C113.036 181.967 124.568 157.913 146.409 148.744L158.334 143.737C168.437 139.495 176.73 131.839 181.764 122.106L191.177 103.904C200.412 86.047 220.028 76.0928 239.893 79.1832L325.695 92.5319C344.548 95.4649 363.291 86.648 373.053 70.2548L384.413 51.1773C394.289 34.5914 413.344 25.7807 432.377 28.9986L476.582 36.472" stroke="#D9D9D9" stroke-width="0.629372" stroke-linejoin="round"/>
</svg>
