<svg width="910" height="678" viewBox="0 0 910 678" fill="none" xmlns="http://www.w3.org/2000/svg">
<path d="M0.896729 53.2319L162.55 139.194C205.903 162.248 227.225 212.481 213.693 259.681L209.463 274.436C194.941 325.086 220.593 378.593 269.176 398.99L295.702 410.127C318.177 419.563 336.624 436.593 347.821 458.244L368.761 498.734C389.303 538.455 432.939 560.598 477.126 553.723L667.988 524.03C709.925 517.506 751.618 537.118 773.333 573.584L798.603 616.021C820.572 652.915 862.957 672.514 905.297 665.356L1003.63 648.732" stroke="#D9D9D9" stroke-width="1.4" stroke-linejoin="round"/>
<path d="M28.7986 27.2319L190.452 113.194C233.805 136.248 255.127 186.481 241.595 233.681L237.364 248.436C222.843 299.086 248.495 352.593 297.078 372.99L323.604 384.127C346.079 393.563 364.526 410.593 375.723 432.244L396.663 472.734C417.205 512.455 460.84 534.598 505.028 527.723L695.89 498.03C737.826 491.506 779.52 511.118 801.235 547.584L826.504 590.021C848.474 626.915 890.859 646.514 933.198 639.356L1031.53 622.732" stroke="#D9D9D9" stroke-width="1.4" stroke-linejoin="round"/>
<path d="M56.7007 1.23181L218.354 87.1939C261.707 110.248 283.029 160.481 269.497 207.681L265.267 222.436C250.745 273.086 276.397 326.593 324.98 346.99L351.506 358.127C373.981 367.563 392.428 384.593 403.625 406.244L424.565 446.734C445.107 486.455 488.743 508.598 532.93 501.723L723.792 472.03C765.729 465.505 807.422 485.118 829.137 521.584L854.407 564.021C876.376 600.915 918.761 620.514 961.101 613.356L1059.43 596.732" stroke="#D9D9D9" stroke-width="1.4" stroke-linejoin="round"/>
</svg>
