<svg width="422" height="305" viewBox="0 0 422 305" fill="none" xmlns="http://www.w3.org/2000/svg">
<path d="M-54.4191 24.3336L18.2522 62.978C37.7415 73.3418 47.3272 95.9245 41.2436 117.143L39.3419 123.776C32.8136 146.546 44.3456 170.6 66.1861 179.77L78.1111 184.776C88.2148 189.018 96.5074 196.674 101.541 206.407L110.955 224.61C120.19 242.466 139.806 252.421 159.67 249.33L245.472 235.981C264.325 233.048 283.069 241.865 292.83 258.259L304.19 277.336C314.067 293.922 333.121 302.733 352.155 299.515L396.359 292.041" stroke="#D9D9D9" stroke-width="0.629372" stroke-linejoin="round"/>
<path d="M-41.8759 12.6454L30.7954 51.2897C50.2848 61.6535 59.8704 84.2362 53.7868 105.455L51.8851 112.088C45.3568 134.858 56.8889 158.912 78.7294 168.081L90.6544 173.088C100.758 177.33 109.051 184.986 114.084 194.719L123.498 212.921C132.733 230.778 152.349 240.732 172.214 237.642L258.016 224.293C276.868 221.36 295.612 230.177 305.374 246.57L316.734 265.648C326.61 282.234 345.664 291.044 364.698 287.826L408.903 280.353" stroke="#D9D9D9" stroke-width="0.629372" stroke-linejoin="round"/>
<path d="M-29.3324 0.956934L43.3389 39.6013C62.8282 49.9651 72.4139 72.5477 66.3303 93.7664L64.4286 100.399C57.9003 123.169 69.4323 147.224 91.2728 156.393L103.198 161.399C113.301 165.641 121.594 173.297 126.628 183.031L136.041 201.233C145.276 219.09 164.892 229.044 184.757 225.953L270.559 212.605C289.412 209.672 308.155 218.489 317.917 234.882L329.277 253.959C339.154 270.545 358.208 279.356 377.242 276.138L421.446 268.665" stroke="#D9D9D9" stroke-width="0.629372" stroke-linejoin="round"/>
</svg>
