<svg width="933" height="678" viewBox="0 0 933 678" fill="none" xmlns="http://www.w3.org/2000/svg">
<path d="M1.24194 624.523L162.895 538.561C206.248 515.507 227.571 465.273 214.038 418.073L209.808 403.319C195.286 352.669 220.938 299.161 269.521 278.764L296.048 267.628C318.523 258.192 336.969 241.162 348.166 219.51L369.106 179.021C389.649 139.299 433.284 117.157 477.471 124.031L668.333 153.725C710.27 160.249 751.964 140.636 773.678 104.171L798.948 61.7337C820.917 24.8395 863.303 5.24052 905.642 12.3986L1003.97 29.0227" stroke="#D9D9D9" stroke-width="1.4" stroke-linejoin="round"/>
<path d="M29.1438 650.523L190.797 564.561C234.15 541.507 255.472 491.273 241.94 444.073L237.71 429.319C223.188 378.669 248.84 325.161 297.423 304.764L323.95 293.628C346.424 284.192 364.871 267.162 376.068 245.51L397.008 205.021C417.551 165.299 461.186 143.157 505.373 150.031L696.235 179.725C738.172 186.249 779.865 166.636 801.58 130.171L826.85 87.7337C848.819 50.8395 891.204 31.2405 933.544 38.3986L1031.87 55.0227" stroke="#D9D9D9" stroke-width="1.4" stroke-linejoin="round"/>
<path d="M57.0459 676.523L218.699 590.561C262.052 567.507 283.375 517.273 269.842 470.073L265.612 455.319C251.09 404.669 276.742 351.161 325.325 330.764L351.852 319.628C374.327 310.192 392.773 293.162 403.97 271.51L424.91 231.021C445.453 191.299 489.088 169.157 533.275 176.031L724.137 205.725C766.074 212.249 807.768 192.636 829.482 156.171L854.752 113.734C876.721 76.8395 919.107 57.2405 961.446 64.3986L1059.78 81.0227" stroke="#D9D9D9" stroke-width="1.4" stroke-linejoin="round"/>
</svg>
