<svg width="476" height="306" viewBox="0 0 476 306" fill="none" xmlns="http://www.w3.org/2000/svg">
<path d="M419.815 276.528L321.485 293.152C279.146 300.31 236.761 280.711 214.791 243.817L189.521 201.38C167.807 164.915 126.113 145.302 84.1762 151.826L-106.686 181.519C-150.873 188.394 -194.508 166.251 -215.051 126.53L-253.322 52.5281" stroke="#D9D9D9" stroke-width="1.4" stroke-linejoin="round"/>
<path d="M447.717 250.528L349.387 267.152C307.048 274.31 264.662 254.711 242.693 217.817L217.423 175.38C195.709 138.915 154.015 119.302 112.078 125.826L-78.7837 155.519C-122.971 162.394 -166.606 140.251 -187.149 100.53L-225.42 26.5281" stroke="#D9D9D9" stroke-width="1.4" stroke-linejoin="round"/>
<path d="M475.619 224.528L377.289 241.152C334.95 248.31 292.564 228.711 270.595 191.817L245.325 149.38C223.611 112.915 181.917 93.3018 139.98 99.8261L-50.8816 129.519C-95.069 136.394 -138.704 114.251 -159.247 74.53L-197.518 0.528076" stroke="#D9D9D9" stroke-width="1.4" stroke-linejoin="round"/>
</svg>
