<svg width="68" height="32" viewBox="0 0 68 32" fill="none" xmlns="http://www.w3.org/2000/svg">
<path d="M10.2182 1.89048C12.7942 1.89048 14.9686 2.47216 16.7413 3.63553C18.5141 4.7712 19.8575 6.4193 20.7716 8.57984C21.6856 10.7404 22.1427 13.358 22.1427 16.4326C22.1427 19.7011 21.5749 22.4571 20.4392 24.7008C19.3312 26.9444 17.7801 28.6341 15.7857 29.7697C13.7914 30.9054 11.4785 31.4732 8.84707 31.4732C7.5452 31.4732 6.29874 31.3486 5.10767 31.0993C3.94431 30.85 2.89174 30.4484 1.94997 29.8944L3.15488 27.4845C3.90276 27.9831 4.76143 28.3432 5.73091 28.5648C6.72808 28.7587 7.75295 28.8557 8.80552 28.8557C11.9355 28.8557 14.4285 27.8585 16.2843 25.8641C18.1678 23.8698 19.1096 20.8921 19.1096 16.9311C19.1096 16.2941 19.0681 15.5323 18.985 14.646C18.9296 13.7596 18.7772 12.8732 18.5279 11.9868L19.5667 12.7763C19.2897 14.2166 18.6941 15.4492 17.7801 16.4741C16.8937 17.4713 15.7857 18.233 14.4562 18.7593C13.1543 19.2856 11.7001 19.5487 10.0935 19.5487C8.18229 19.5487 6.47879 19.1886 4.98303 18.4685C3.51497 17.7483 2.36545 16.7373 1.53448 15.4354C0.703501 14.1335 0.288013 12.5962 0.288013 10.8235C0.288013 8.99533 0.717351 7.41647 1.57603 6.08691C2.4347 4.75735 3.61192 3.73248 5.10767 3.0123C6.63113 2.26442 8.33463 1.89048 10.2182 1.89048ZM10.3428 4.42496C8.95786 4.42496 7.72525 4.6881 6.64498 5.21438C5.59241 5.71297 4.76143 6.43315 4.15205 7.37492C3.54267 8.3167 3.23798 9.43851 3.23798 10.7404C3.23798 12.6516 3.88891 14.1751 5.19077 15.3107C6.52033 16.4464 8.30693 17.0142 10.5506 17.0142C12.0463 17.0142 13.3482 16.7373 14.4562 16.1833C15.5918 15.6293 16.4643 14.8676 17.0737 13.8981C17.7108 12.9286 18.0294 11.8483 18.0294 10.6573C18.0294 9.57701 17.7385 8.56599 17.1568 7.62422C16.5751 6.68244 15.7165 5.92071 14.5808 5.33903C13.4451 4.72965 12.0325 4.42496 10.3428 4.42496ZM29.5124 25.5733L29.5955 21.7924L43.182 9.41081H46.7967L37.1989 18.5931L35.537 20.0058L29.5124 25.5733ZM27.1857 31.2239V0.394723H30.1356V31.2239H27.1857ZM44.096 31.2239L34.9968 19.8811L36.9081 17.5959L47.7108 31.2239H44.096Z" fill="white"/>
<path d="M57.416 25.4902V7.87351H60.0336V25.4902H57.416ZM49.6879 17.9283V15.4769H67.7616V17.9283H49.6879Z" fill="url(#paint0_linear_201_29)"/>
<defs>
<linearGradient id="paint0_linear_201_29" x1="108.593" y1="17.0598" x2="33.9406" y2="23.6757" gradientUnits="userSpaceOnUse">
<stop stop-color="#237249"/>
<stop offset="1" stop-color="#35C66B"/>
</linearGradient>
</defs>
</svg>
